<?xml version="1.0" encoding="utf-8"?>
<!-- Generator: Adobe Illustrator 21.1.0, SVG Export Plug-In . SVG Version: 6.00 Build 0)  -->
<svg version="1.1" id="Layer_1" xmlns="http://www.w3.org/2000/svg" xmlns:xlink="http://www.w3.org/1999/xlink" x="0px" y="0px"
	 viewBox="0 0 46.6 46.8" style="enable-background:new 0 0 46.6 46.8;" xml:space="preserve">
<style type="text/css">
	.st0{fill:#FF5C00;}
</style>
<path class="st0" d="M-28.6,6.2"/>
<g>
	<path class="st0" d="M7.2,18.9c1.9-7.1,8.4-12.3,16.1-12.3c9.2,0,16.7,7.5,16.7,16.7c0,3.2-0.9,6.2-2.5,8.7l0.1-0.1
		c1.6,1.4,3.2,3,4.8,4.7c2.6-3.8,4.2-8.4,4.2-13.3C46.7,10.4,36.2,0,23.3,0C12,0,2.6,8,0.4,18.7C2.1,18.6,4.4,18.6,7.2,18.9z"/>
	<path class="st0" d="M34.3,36L34.3,36c-2.9,2.5-6.7,4.1-11,4.1c-9.2,0-16.7-7.5-16.7-16.7c0-0.2,0-0.3,0-0.5
		c-2.1-0.2-4.3-0.4-6.6-0.4c0,0.3,0,0.6,0,0.9c0,12.9,10.5,23.4,23.4,23.4c6,0,11.5-2.3,15.7-6C37.4,39,35.9,37.4,34.3,36z"/>
</g>
</svg>
