<svg id="图层_1" data-name="图层 1" xmlns="http://www.w3.org/2000/svg" viewBox="0 0 718.5 172.7"><defs><style>.cls-1{fill:#4285f4;}.cls-2{fill:#ffea00;}.cls-3{fill:#e73844;}.cls-4{fill:#00c40d;}</style></defs><title>logo</title><polygon class="cls-1" points="98.9 170 98.9 96.1 26.5 96.1 26.5 170 0 170 0 0 26.5 0 26.5 70.5 98.9 70.5 98.9 0 125.3 0 125.3 170 98.9 170"/><polygon class="cls-1" points="103.9 165 103.9 91.1 21.5 91.1 21.5 165 5 165 5 5 21.5 5 21.5 75.5 103.9 75.5 103.9 5 120.3 5 120.3 165 103.9 165"/><polygon class="cls-1" points="100.9 168 100.9 94.1 24.5 94.1 24.5 168 2 168 2 2 24.5 2 24.5 72.5 100.9 72.5 100.9 2 123.3 2 123.3 168 100.9 168"/><polygon class="cls-1" points="105.9 163 105.9 89.1 19.5 89.1 19.5 163 7 163 7 7 19.5 7 19.5 77.5 105.9 77.5 105.9 7 118.3 7 118.3 163 105.9 163"/><polygon class="cls-1" points="103 166 103 92 22.5 92 22.5 166 4.1 166 4.1 4.1 22.5 4.1 22.5 74.6 103 74.6 103 4.1 121.3 4.1 121.3 166 103 166"/><polygon class="cls-1" points="108 161 108 87 17.5 87 17.5 161 9.1 161 9.1 9.1 17.5 9.1 17.5 79.6 108 79.6 108 9.1 116.3 9.1 116.3 161 108 161"/><polygon class="cls-1" points="105 164 105 90 20.5 90 20.5 164 6.1 164 6.1 6.1 20.5 6.1 20.5 76.6 105 76.6 105 6.1 119.3 6.1 119.3 164 105 164"/><polygon class="cls-1" points="110 159 110 85 15.5 85 15.5 159 11.1 159 11.1 11.1 15.5 11.1 15.5 81.6 110 81.6 110 11.1 114.3 11.1 114.3 159 110 159"/><polygon class="cls-1" points="102.8 166.2 102.8 92.2 22.6 92.2 22.6 166.2 3.9 166.2 3.9 3.9 22.6 3.9 22.6 74.4 102.8 74.4 102.8 3.9 121.5 3.9 121.5 166.2 102.8 166.2"/><polygon class="cls-1" points="107.8 161.2 107.8 87.2 17.6 87.2 17.6 161.2 8.9 161.2 8.9 8.9 17.6 8.9 17.6 79.4 107.8 79.4 107.8 8.9 116.5 8.9 116.5 161.2 107.8 161.2"/><polygon class="cls-1" points="104.8 164.2 104.8 90.2 20.6 90.2 20.6 164.2 5.9 164.2 5.9 5.9 20.6 5.9 20.6 76.4 104.8 76.4 104.8 5.9 119.5 5.9 119.5 164.2 104.8 164.2"/><polygon class="cls-1" points="109.8 159.2 109.8 85.2 15.7 85.2 15.7 159.2 10.9 159.2 10.9 10.9 15.7 10.9 15.7 81.4 109.8 81.4 109.8 10.9 114.5 10.9 114.5 159.2 109.8 159.2"/><path class="cls-1" d="M147.6,275.7v-74H59.3v74H48.7V121.6H59.3v70.5h88.3V121.6h10.5V275.7Z" transform="translate(-40.8 -113.6)"/><path class="cls-1" d="M152.6,270.7V126.6h.5V270.7Zm-98.9,0V126.6h.6V270.7Z" transform="translate(-40.8 -113.6)"/><polygon class="cls-1" points="108.8 160.1 108.8 86.1 16.6 86.1 16.6 160.1 9.9 160.1 9.9 9.9 16.6 9.9 16.6 80.5 108.8 80.5 108.8 9.9 115.4 9.9 115.4 160.1 108.8 160.1"/><polygon class="cls-1" points="108.8 160.1 108.8 86.1 16.6 86.1 16.6 160.1 9.9 160.1 9.9 9.9 16.6 9.9 16.6 80.5 108.8 80.5 108.8 9.9 115.4 9.9 115.4 160.1 108.8 160.1"/><path class="cls-2" d="M239.7,286.4c-18.4,0-33.2-6.2-44.1-18.5s-16-27.7-16-46.5,5.7-36.6,16.9-48.4,26.2-18,44.4-18,32.5,6.1,43.1,18,15.7,27.8,15.7,47.8-5.3,34.8-15.9,46.8S258.2,286.4,239.7,286.4Zm.8-106.4c-10.7,0-18.9,3.4-25.1,10.4s-9.6,17.7-9.6,31.2,3.2,22.3,9.4,29.5,14.1,10.4,24.8,10.4,18.9-3.3,24.5-10,8.9-17.4,8.9-30.7-3-24.1-8.8-31S251.2,179.9,240.5,179.9Z" transform="translate(-40.8 -113.6)"/><path class="cls-2" d="M239.7,281.4c-16.9,0-30.4-5.7-40.3-16.8s-14.8-25.6-14.8-43.2,5.2-34.1,15.5-44.9,24-16.4,40.8-16.4,29.8,5.5,39.4,16.4,14.4,25.7,14.4,44.5-4.9,32.4-14.6,43.5S256.7,281.4,239.7,281.4Zm.8-106.4c-12.2,0-21.6,4-28.8,12.1s-10.8,19.8-10.8,34.5,3.6,24.7,10.6,32.8,16.4,12.1,28.6,12.1,21.7-3.9,28.4-11.8,10.1-19.4,10.1-33.9-3.4-26.4-10-34.2S252.7,174.9,240.5,174.9Z" transform="translate(-40.8 -113.6)"/><path class="cls-2" d="M239.7,284.4c-17.8,0-32.1-6-42.6-17.9s-15.5-26.8-15.5-45.2,5.5-35.6,16.3-47,25.4-17.3,43-17.3,31.4,5.8,41.6,17.4,15.2,27,15.2,46.5-5.2,33.8-15.4,45.5S257.6,284.4,239.7,284.4Zm.8-106.4c-11.3,0-20,3.6-26.6,11.1s-10.1,18.5-10.1,32.5,3.3,23.3,9.9,30.9,15,11.1,26.4,11.1,20-3.5,26.1-10.8,9.4-18.2,9.4-32-3.1-25-9.3-32.3S251.8,177.9,240.5,177.9Z" transform="translate(-40.8 -113.6)"/><path class="cls-2" d="M239.7,279.4c-16.3,0-29.3-5.4-38.8-16.2s-14.3-24.8-14.3-41.9,5-33.1,14.9-43.5S224.7,162,240.9,162s28.7,5.3,37.9,15.7,13.9,24.9,13.9,43.2-4.8,31.5-14.2,42.2S256.1,279.4,239.7,279.4Zm.8-106.4c-12.8,0-22.7,4.2-30.3,12.8s-11.3,20.6-11.3,35.8,3.7,25.6,11.1,34.1,17.3,12.8,30.1,12.8,22.9-4.1,29.9-12.6,10.5-20.2,10.5-35.2S277,193.4,270,185.2,253.4,172.9,240.5,172.9Z" transform="translate(-40.8 -113.6)"/><path class="cls-2" d="M239.7,282.3c-17.1,0-30.9-5.8-41-17.2s-15-26-15-43.8,5.3-34.5,15.7-45.6,24.4-16.7,41.5-16.7,30.3,5.6,40.1,16.7,14.6,26.1,14.6,45.1-5,32.9-14.9,44.2S257,282.3,239.7,282.3Zm.8-106.4c-11.9,0-21.1,3.9-28.1,11.8s-10.6,19.4-10.6,33.9,3.5,24.2,10.4,32.2,15.9,11.8,27.9,11.8,21.2-3.8,27.7-11.5,9.9-19.1,9.9-33.3-3.3-26-9.8-33.6S252.5,175.9,240.5,175.9Z" transform="translate(-40.8 -113.6)"/><path class="cls-2" d="M239.7,277.3c-15.6,0-28.2-5.2-37.3-15.5s-13.7-23.9-13.7-40.5,4.8-32.1,14.4-42.1,22.2-15.1,37.8-15.1,27.5,5,36.4,15,13.4,24.1,13.4,41.8-4.6,30.5-13.6,40.9S255.5,277.3,239.7,277.3Zm.8-106.4c-13.4,0-23.9,4.4-31.9,13.5s-11.8,21.4-11.8,37.2,3.9,26.5,11.6,35.5,18.2,13.5,31.7,13.5,24-4.4,31.5-13.3,11-21.1,11-36.5-3.7-28.3-11-36.9S254,170.9,240.5,170.9Z" transform="translate(-40.8 -113.6)"/><path class="cls-2" d="M239.7,280.3c-16.5,0-29.8-5.5-39.5-16.5s-14.5-25.2-14.5-42.5,5.1-33.6,15.2-44.2,23.6-16.1,40-16.1,29.2,5.4,38.6,16,14.1,25.3,14.1,43.8-4.8,31.9-14.4,42.8S256.4,280.3,239.7,280.3Zm.8-106.4c-12.5,0-22.2,4.1-29.6,12.5s-11.1,20.2-11.1,35.2,3.6,25.2,10.8,33.5,16.8,12.5,29.4,12.5,22.3-4,29.2-12.2,10.3-19.9,10.3-34.6-3.4-26.9-10.3-34.9S253.1,173.9,240.5,173.9Z" transform="translate(-40.8 -113.6)"/><path class="cls-2" d="M239.7,275.3c-15,0-27.1-5-35.8-14.8s-13.2-23.1-13.2-39.2,4.6-31.1,13.8-40.7,21.4-14.5,36.4-14.5,26.4,4.8,34.9,14.3,12.9,23.2,12.9,40.5-4.4,29.6-13.1,39.5S254.9,275.3,239.7,275.3Zm.8-106.4c-14,0-25,4.6-33.4,14.2s-12.3,22.2-12.3,38.5,4.1,27.5,12,36.8,19.1,14.2,33.2,14.2,25.2-4.6,33-14,11.5-21.9,11.5-37.8-3.9-29.2-11.4-38.2S254.6,168.9,240.5,168.9Z" transform="translate(-40.8 -113.6)"/><path class="cls-2" d="M239.7,282.5c-17.2,0-31-5.8-41.2-17.2s-15.1-26.1-15.1-43.9,5.3-34.6,15.8-45.7,24.5-16.8,41.6-16.8,30.4,5.6,40.2,16.7,14.7,26.2,14.7,45.3-5,33-14.9,44.3S257,282.5,239.7,282.5Zm.8-106.4c-11.9,0-21,3.8-28,11.7S202,207.1,202,221.6s3.5,24.1,10.3,32.1,15.9,11.7,27.8,11.7,21.1-3.7,27.5-11.4,9.8-19,9.8-33.2-3.3-25.9-9.7-33.5S252.4,176.1,240.5,176.1Z" transform="translate(-40.8 -113.6)"/><path class="cls-2" d="M239.7,277.5c-15.7,0-28.3-5.2-37.4-15.5s-13.8-24-13.8-40.6,4.9-32.2,14.4-42.3,22.3-15.2,38-15.2,27.6,5.1,36.5,15.1,13.4,24.1,13.4,42-4.6,30.6-13.7,41S255.5,277.5,239.7,277.5Zm.8-106.4c-13.4,0-23.8,4.4-31.7,13.4S197,205.8,197,221.6s3.9,26.5,11.5,35.3,18.1,13.4,31.6,13.4,23.9-4.3,31.4-13.2,11-21,11-36.4-3.7-28.2-10.9-36.7S254,171.1,240.5,171.1Z" transform="translate(-40.8 -113.6)"/><path class="cls-2" d="M239.7,280.5c-16.6,0-29.9-5.6-39.7-16.6s-14.5-25.2-14.5-42.6,5.1-33.6,15.2-44.3,23.7-16.1,40.1-16.1,29.3,5.4,38.7,16.1,14.2,25.4,14.2,43.9-4.9,32-14.4,43S256.4,280.5,239.7,280.5Zm.8-106.4c-12.5,0-22.1,4.1-29.5,12.4s-11,20.1-11,35.1,3.6,25.1,10.8,33.4,16.8,12.4,29.3,12.4,22.2-4,29.1-12.2,10.3-19.8,10.3-34.5-3.4-26.8-10.2-34.8S253,174.1,240.5,174.1Z" transform="translate(-40.8 -113.6)"/><path class="cls-2" d="M239.7,275.5c-15.1,0-27.2-5-35.9-14.9s-13.3-23.2-13.3-39.3,4.7-31.2,13.9-40.9,21.4-14.6,36.5-14.6,26.5,4.8,35,14.4,12.9,23.3,12.9,40.6-4.4,29.7-13.2,39.7S254.9,275.5,239.7,275.5Zm.8-106.4c-14,0-24.9,4.6-33.2,14.1S195,205.3,195,221.6s4,27.4,12,36.6,19,14.1,33.1,14.1,25.1-4.6,32.9-14,11.4-21.8,11.4-37.7-3.8-29.1-11.4-38S254.6,169.1,240.5,169.1Z" transform="translate(-40.8 -113.6)"/><path class="cls-2" d="M239.7,278.4q-24.1,0-38.1-15.9t-14-41.2q0-27.4,14.7-42.9T240.9,163q23.5,0,37.2,15.4t13.7,42.6q0,25.7-13.9,41.6T239.7,278.4Zm.8-106.4q-19.5,0-31,13.1t-11.6,36.4q0,21.6,11.3,34.7t30.9,13.1q19.9,0,30.6-12.9t10.8-35.8q0-23.5-10.7-36.1T240.5,172Z" transform="translate(-40.8 -113.6)"/><path class="cls-2" d="M200.5,252.7c-5.2-8.6-7.9-19.1-7.9-31.3,0-14.3,3.2-26,9.5-34.9-6.1,9.1-9.2,20.9-9.2,35.1C192.9,233.7,195.5,244.1,200.5,252.7Zm83-10.1a75.9,75.9,0,0,0,2.9-21.9c0-10.5-1.5-19.5-4.6-27.1,3.3,7.6,4.9,16.8,4.9,27.4A68,68,0,0,1,283.5,242.6Z" transform="translate(-40.8 -113.6)"/><path class="cls-2" d="M239.7,276.4c-15.4,0-27.7-5.1-36.6-15.2s-13.5-23.6-13.5-39.9,4.8-31.6,14.1-41.5S225.6,165,240.9,165s27,4.9,35.7,14.7,13.1,23.7,13.1,41.2-4.5,30.1-13.4,40.3S255.2,276.4,239.7,276.4Zm.8-106.4c-13.5,0-24.5,4.6-32.5,13.8s-12.1,21.8-12.1,37.8,4,27,11.8,36,18.8,13.8,32.4,13.8,24.6-4.6,32.2-13.6,11.2-21.4,11.2-37.1-3.8-28.7-11.2-37.4S254.1,170,240.5,170Z" transform="translate(-40.8 -113.6)"/><path class="cls-2" d="M239.7,276.4c-15.4,0-27.7-5.1-36.6-15.2s-13.5-23.6-13.5-39.9,4.8-31.6,14.1-41.5S225.6,165,240.9,165s27,4.9,35.7,14.7,13.1,23.7,13.1,41.2-4.5,30.1-13.4,40.3S255.2,276.4,239.7,276.4Zm.8-106.4c-13.5,0-24.5,4.6-32.5,13.8s-12.1,21.8-12.1,37.8,4,27,11.8,36,18.8,13.8,32.4,13.8,24.6-4.6,32.2-13.6,11.2-21.4,11.2-37.1-3.8-28.7-11.2-37.4S254.1,170,240.5,170Z" transform="translate(-40.8 -113.6)"/><path class="cls-3" d="M311.1,283.7v-126h25.6v6.1a36,36,0,0,1,23.3-8.3,37.3,37.3,0,0,1,13.9,2.5l5,2v31.4l-12.6-9a11.4,11.4,0,0,0-7-2.1c-6,0-10.8,3.1-15.2,9.9s-7.5,19-7.5,33.8v59.7Z" transform="translate(-40.8 -113.6)"/><path class="cls-3" d="M316.1,278.7v-116h15.6v11.7l8.2-6.7a31.2,31.2,0,0,1,20.2-7.2,32.4,32.4,0,0,1,12.1,2.1l1.8.7v18.3l-4.7-3.3a16.4,16.4,0,0,0-9.9-3c-7.7,0-14,4-19.4,12.1s-8.3,20.7-8.3,36.6v54.7Z" transform="translate(-40.8 -113.6)"/><path class="cls-3" d="M313.1,281.7v-122h21.6v8.3l3.3-2.7a34.1,34.1,0,0,1,22.1-7.8,35.3,35.3,0,0,1,13.2,2.4l3.7,1.5v26.1l-9.4-6.7a13.3,13.3,0,0,0-8.1-2.4c-6.7,0-12,3.4-16.9,10.8s-7.8,19.7-7.8,34.9v57.7Z" transform="translate(-40.8 -113.6)"/><path class="cls-3" d="M318.1,276.7v-112h11.6v13.9l11.4-9.3a29.2,29.2,0,0,1,18.9-6.7,30.4,30.4,0,0,1,11.3,2l.6.2v13l-1.5-1.1a18.3,18.3,0,0,0-11.1-3.4c-8.4,0-15.3,4.3-21,13s-8.7,21.4-8.7,37.7v52.7Z" transform="translate(-40.8 -113.6)"/><path class="cls-3" d="M315.2,279.6V161.8h17.4V174a37.6,37.6,0,0,1,6-6.5,32.1,32.1,0,0,1,21.4-7.9,33.3,33.3,0,0,1,12.4,2.2l2.4,1v20.7l-6.1-4.4a15.5,15.5,0,0,0-9.4-2.8c-7.3,0-13.4,3.8-18.6,11.7s-8.2,20.4-8.2,36v55.6Z" transform="translate(-40.8 -113.6)"/><path class="cls-3" d="M320.2,274.6V166.8h7.4v22.6l9-12.4a32.7,32.7,0,0,1,5.2-5.6,27.3,27.3,0,0,1,18.2-6.7,28.9,28.9,0,0,1,9.8,1.6v7.7a21,21,0,0,0-10.5-2.6c-9,0-16.7,4.7-22.8,13.9s-9,22.2-9,38.8v50.6Z" transform="translate(-40.8 -113.6)"/><path class="cls-3" d="M317.2,277.6V163.8h13.4v16.4l3.6-5a35.7,35.7,0,0,1,5.7-6.2,30.2,30.2,0,0,1,20.1-7.4,31.3,31.3,0,0,1,11.7,2.1l1.2.5v15.5l-3-2.1a17.4,17.4,0,0,0-10.5-3.2c-8.1,0-14.7,4.1-20.3,12.6s-8.5,21.1-8.5,37.1v53.6Z" transform="translate(-40.8 -113.6)"/><path class="cls-3" d="M322.2,272.6V168.8h3.4v26.8l12.7-17.4a30.7,30.7,0,0,1,4.9-5.3,25.3,25.3,0,0,1,16.9-6.2,28,28,0,0,1,7.8,1v3.1a23.7,23.7,0,0,0-8.5-1.5c-9.8,0-18,5-24.4,14.8s-9.3,22.9-9.3,39.9v48.6Z" transform="translate(-40.8 -113.6)"/><path class="cls-3" d="M315,279.8V161.6h17.8v11.9a37.6,37.6,0,0,1,5.7-6.1,32.3,32.3,0,0,1,21.6-8,33.5,33.5,0,0,1,12.5,2.2l2.6,1v21.2l-6.4-4.6a15.3,15.3,0,0,0-9.2-2.8c-7.3,0-13.3,3.8-18.4,11.6s-8.1,20.3-8.1,35.9v55.8Z" transform="translate(-40.8 -113.6)"/><path class="cls-3" d="M320,274.8V166.6h7.8v21.9l9-12a32.7,32.7,0,0,1,4.9-5.3,27.5,27.5,0,0,1,18.3-6.8,29,29,0,0,1,10,1.6v8.2a20.7,20.7,0,0,0-10.7-2.8c-9,0-16.6,4.7-22.6,13.9s-9,22.1-9,38.7v50.8Z" transform="translate(-40.8 -113.6)"/><path class="cls-3" d="M317,277.8V163.6h13.8v15.9l3.6-4.8a35.7,35.7,0,0,1,5.4-5.7,30.4,30.4,0,0,1,20.3-7.5,31.5,31.5,0,0,1,11.7,2.1l1.3.5v16l-3.3-2.3a17.2,17.2,0,0,0-10.4-3.2c-8,0-14.6,4.1-20.1,12.5s-8.5,21-8.5,37v53.8Z" transform="translate(-40.8 -113.6)"/><path class="cls-3" d="M322,272.8V168.6h3.8v25.9l12.6-16.8a30.7,30.7,0,0,1,4.6-4.9,25.5,25.5,0,0,1,17-6.3,28.1,28.1,0,0,1,8,1.1V171a23.4,23.4,0,0,0-8.7-1.6c-9.7,0-17.9,5-24.3,14.8s-9.3,22.8-9.3,39.8v48.8Z" transform="translate(-40.8 -113.6)"/><path class="cls-3" d="M371,176a19.4,19.4,0,0,0-11.6-3.5q-13,0-21.8,13.4T328.8,224v51.7h-9.7V165.7h9.7v24.4h.4q3.8-12.6,11.9-19.6a28.2,28.2,0,0,1,18.9-7,29.3,29.3,0,0,1,11,1.9Z" transform="translate(-40.8 -113.6)"/><path class="cls-3" d="M324.1,195.1h3.7a83,83,0,0,0-3.7,19.8Z" transform="translate(-40.8 -113.6)"/><path class="cls-3" d="M321.1,273.7V167.7h5.7v24.4h3.9l.4-1.4c2.4-8,6.2-14.2,11.3-18.6a26.1,26.1,0,0,1,17.6-6.5,28.5,28.5,0,0,1,9,1.3v5.6a22.2,22.2,0,0,0-9.6-2.1c-9.3,0-17.3,4.8-23.5,14.3s-9.1,22.5-9.1,39.3v49.7Z" transform="translate(-40.8 -113.6)"/><path class="cls-3" d="M321.1,273.7V167.7h5.7v24.4h3.9l.4-1.4c2.4-8,6.2-14.2,11.3-18.6a26.1,26.1,0,0,1,17.6-6.5,28.5,28.5,0,0,1,9,1.3v5.6a22.2,22.2,0,0,0-9.6-2.1c-9.3,0-17.3,4.8-23.5,14.3s-9.1,22.5-9.1,39.3v49.7Z" transform="translate(-40.8 -113.6)"/><path class="cls-3" d="M400.6,145.9a16.2,16.2,0,0,1-16.1-16.3,15.3,15.3,0,0,1,5.2-11.7,16.1,16.1,0,0,1,10.9-4.2,16.5,16.5,0,0,1,11,4,15.3,15.3,0,0,1,5.3,11.9,16.4,16.4,0,0,1-16.3,16.3Z" transform="translate(-40.8 -113.6)"/><path class="cls-3" d="M400.6,140.9a11.2,11.2,0,0,1-11.1-11.3,10.4,10.4,0,0,1,3.5-8,11.1,11.1,0,0,1,7.6-2.9,11.5,11.5,0,0,1,7.8,2.8,10.2,10.2,0,0,1,3.6,8,11.4,11.4,0,0,1-11.3,11.3Z" transform="translate(-40.8 -113.6)"/><path class="cls-3" d="M400.6,143.9a14.2,14.2,0,0,1-14.1-14.3,13.3,13.3,0,0,1,4.6-10.2,14.2,14.2,0,0,1,9.6-3.7,14.6,14.6,0,0,1,9.7,3.6,13.3,13.3,0,0,1,4.6,10.3,14.4,14.4,0,0,1-14.3,14.3Z" transform="translate(-40.8 -113.6)"/><path class="cls-3" d="M400.6,138.9a9.2,9.2,0,0,1-9.1-9.3,8.3,8.3,0,0,1,2.8-6.5,9.2,9.2,0,0,1,6.3-2.4,9.6,9.6,0,0,1,6.5,2.4,8.3,8.3,0,0,1,2.9,6.5,9.4,9.4,0,0,1-9.3,9.3Z" transform="translate(-40.8 -113.6)"/><path class="cls-3" d="M400.6,141.8a12.1,12.1,0,0,1-12-12.3,11.2,11.2,0,0,1,3.9-8.7,12.2,12.2,0,0,1,8.2-3.2,12.6,12.6,0,0,1,8.4,3.1,11.1,11.1,0,0,1,3.9,8.8,12.3,12.3,0,0,1-12.3,12.3Z" transform="translate(-40.8 -113.6)"/><path class="cls-3" d="M400.6,136.8a7.1,7.1,0,0,1-7-7.3,6.1,6.1,0,0,1,2.1-4.9,7.2,7.2,0,0,1,4.9-1.9,7.6,7.6,0,0,1,5.1,1.9,6.1,6.1,0,0,1,2.1,4.9,7.3,7.3,0,0,1-7.3,7.3Z" transform="translate(-40.8 -113.6)"/><path class="cls-3" d="M400.6,139.8a10.1,10.1,0,0,1-10-10.3,9.2,9.2,0,0,1,3.2-7.2,10.2,10.2,0,0,1,6.9-2.7,10.6,10.6,0,0,1,7.1,2.6,9.2,9.2,0,0,1,3.2,7.2,10.3,10.3,0,0,1-10.3,10.3Z" transform="translate(-40.8 -113.6)"/><path class="cls-3" d="M400.6,134.8a5,5,0,0,1-3.5-1.5,4.9,4.9,0,0,1-1.5-3.8,4.2,4.2,0,0,1,1.5-3.4,5.2,5.2,0,0,1,3.6-1.4,5.6,5.6,0,0,1,3.8,1.4,4.2,4.2,0,0,1,1.4,3.4,5.3,5.3,0,0,1-5.3,5.3Z" transform="translate(-40.8 -113.6)"/><path class="cls-3" d="M400.6,142a12.3,12.3,0,0,1-12.2-12.5,11.4,11.4,0,0,1,3.9-8.8,12.4,12.4,0,0,1,8.3-3.2,12.8,12.8,0,0,1,8.5,3.1,11.3,11.3,0,0,1,4,8.9A12.5,12.5,0,0,1,400.6,142Z" transform="translate(-40.8 -113.6)"/><path class="cls-3" d="M400.6,137a7.3,7.3,0,0,1-7.2-7.5,6.4,6.4,0,0,1,2.2-5,7.4,7.4,0,0,1,5-2,7.8,7.8,0,0,1,5.3,1.9,6.3,6.3,0,0,1,2.2,5.1,7.5,7.5,0,0,1-7.5,7.5Z" transform="translate(-40.8 -113.6)"/><path class="cls-3" d="M400.6,140a10.3,10.3,0,0,1-10.2-10.5,9.4,9.4,0,0,1,3.2-7.3,10.4,10.4,0,0,1,7-2.7,10.8,10.8,0,0,1,7.2,2.6,9.4,9.4,0,0,1,3.3,7.4A10.5,10.5,0,0,1,400.6,140Z" transform="translate(-40.8 -113.6)"/><path class="cls-3" d="M400.6,135a5.3,5.3,0,0,1-5.2-5.5,4.4,4.4,0,0,1,1.5-3.5,5.4,5.4,0,0,1,3.7-1.5,5.8,5.8,0,0,1,4,1.5,4.4,4.4,0,0,1,1.5,3.6,5.5,5.5,0,0,1-5.5,5.5Z" transform="translate(-40.8 -113.6)"/><path class="cls-3" d="M400.6,137.9a8.3,8.3,0,0,1-8.2-8.4,7.3,7.3,0,0,1,2.5-5.8,8.4,8.4,0,0,1,5.6-2.2,8.8,8.8,0,0,1,5.9,2.1,7.2,7.2,0,0,1,2.5,5.8,8.4,8.4,0,0,1-8.4,8.4Z" transform="translate(-40.8 -113.6)"/><path class="cls-3" d="M400.6,132.9a3,3,0,0,1-2.2-1,3,3,0,0,1-.9-2.4,2.3,2.3,0,0,1,.8-2,3.4,3.4,0,0,1,2.4-1,3.8,3.8,0,0,1,2.6,1,2.3,2.3,0,0,1,.8,2,3.4,3.4,0,0,1-3.4,3.4Z" transform="translate(-40.8 -113.6)"/><path class="cls-3" d="M400.6,135.9a6.3,6.3,0,0,1-6.2-6.4,5.3,5.3,0,0,1,1.8-4.2,6.4,6.4,0,0,1,4.3-1.7,6.8,6.8,0,0,1,4.6,1.7,5.3,5.3,0,0,1,1.8,4.3,6.4,6.4,0,0,1-6.4,6.4Z" transform="translate(-40.8 -113.6)"/><path class="cls-3" d="M400.6,130.9c-.2,0-.4,0-.9-.4s-.3-.3-.3-1a1.2,1.2,0,0,1,0-.4h.1a1.4,1.4,0,0,1,1-.5,1.8,1.8,0,0,1,1.3.5h0a1.1,1.1,0,0,1,.1.5,1.4,1.4,0,0,1-1.4,1.4Z" transform="translate(-40.8 -113.6)"/><rect class="cls-3" x="347.1" y="44.1" width="25.8" height="125.97"/><rect class="cls-3" x="352.1" y="49.1" width="15.8" height="115.97"/><rect class="cls-3" x="349.1" y="46.1" width="21.8" height="121.97"/><rect class="cls-3" x="354.1" y="51.1" width="11.8" height="111.97"/><rect class="cls-3" x="351.1" y="48.1" width="17.6" height="117.84"/><rect class="cls-3" x="356.1" y="53.1" width="7.6" height="107.84"/><rect class="cls-3" x="353.1" y="50.1" width="13.6" height="113.84"/><rect class="cls-3" x="358.1" y="55.1" width="3.6" height="103.84"/><rect class="cls-3" x="350.9" y="48" width="18" height="118.22"/><rect class="cls-3" x="355.9" y="53" width="8" height="108.22"/><rect class="cls-3" x="352.9" y="50" width="14" height="114.22"/><rect class="cls-3" x="357.9" y="55" width="4" height="104.22"/><rect class="cls-3" x="355" y="52" width="9.9" height="110.09"/><rect class="cls-3" x="355" y="52" width="9.9" height="110.09"/><rect class="cls-3" x="357" y="54" width="5.9" height="106.09"/><rect class="cls-3" x="357" y="54" width="5.9" height="106.09"/><polygon class="cls-1" points="380.7 170 380.7 155.7 445.9 69 386 69 386 44.1 486.5 44.1 486.5 57.4 420.7 145.1 483.8 145.1 483.8 170 380.7 170"/><polygon class="cls-1" points="385.7 165 385.7 157.4 455.9 64 391 64 391 49.1 481.5 49.1 481.5 55.7 410.7 150.1 478.8 150.1 478.8 165 385.7 165"/><polygon class="cls-1" points="382.7 168 382.7 156.4 449.9 67 388 67 388 46.1 484.5 46.1 484.5 56.7 416.7 147.1 481.8 147.1 481.8 168 382.7 168"/><polygon class="cls-1" points="387.7 163 387.7 158 459.9 62 393 62 393 51.1 479.5 51.1 479.5 55 406.7 152.1 476.8 152.1 476.8 163 387.7 163"/><polygon class="cls-1" points="384.8 166 384.8 157.1 454 64.9 390.1 64.9 390.1 48.1 482.4 48.1 482.4 56 412.5 149.2 479.7 149.2 479.7 166 384.8 166"/><polygon class="cls-1" points="389.8 161 389.8 158.7 464 59.9 395.1 59.9 395.1 53.1 477.4 53.1 477.4 54.3 402.5 154.2 474.7 154.2 474.7 161 389.8 161"/><polygon class="cls-1" points="386.8 164 386.8 157.7 458 62.9 392.1 62.9 392.1 50.1 480.4 50.1 480.4 55.3 408.5 151.2 477.7 151.2 477.7 164 386.8 164"/><polygon class="cls-1" points="392.1 159 468 57.9 397.1 57.9 397.1 55.1 474.3 55.1 398.5 156.2 472.7 156.2 472.7 159 392.1 159"/><polygon class="cls-1" points="384.6 166.2 384.6 157 453.6 65.1 389.9 65.1 389.9 48 482.6 48 482.6 56.1 412.9 149 479.9 149 479.9 166.2 384.6 166.2"/><polygon class="cls-1" points="389.6 161.2 389.6 158.7 463.6 60.1 394.9 60.1 394.9 53 477.6 53 477.6 54.4 402.9 154 474.9 154 474.9 161.2 389.6 161.2"/><polygon class="cls-1" points="386.6 164.2 386.6 157.7 457.6 63.1 391.9 63.1 391.9 50 480.6 50 480.6 55.4 408.9 151 477.9 151 477.9 164.2 386.6 164.2"/><polygon class="cls-1" points="391.7 159.2 467.6 58.1 396.9 58.1 396.9 55 474.7 55 398.9 156 472.9 156 472.9 159.2 391.7 159.2"/><path class="cls-1" d="M445.5,266.7h71.1v9H429.4V272l73.1-97.3H434.7v-9h84.6v2.7Z" transform="translate(-40.8 -113.6)"/><path class="cls-1" d="M445.5,266.7h71.1v9H429.4V272l73.1-97.3H434.7v-9h84.6v2.7Z" transform="translate(-40.8 -113.6)"/><polygon class="cls-1" points="390.7 160.1 390.7 159 465.8 59 395.9 59 395.9 54 476.5 54 476.5 54 400.8 155.1 473.9 155.1 473.9 160.1 390.7 160.1"/><polygon class="cls-1" points="390.7 160.1 390.7 159 465.8 59 395.9 59 395.9 54 476.5 54 476.5 54 400.8 155.1 473.9 155.1 473.9 160.1 390.7 160.1"/><path class="cls-4" d="M587.2,286.4c-18.4,0-33.2-6.2-44.1-18.5s-16-27.7-16-46.5,5.7-36.6,16.9-48.4,26.2-18,44.4-18,32.5,6.1,43.1,18,15.7,27.8,15.7,47.8-5.3,34.8-15.9,46.8S605.7,286.4,587.2,286.4Zm.8-106.4c-10.7,0-18.9,3.4-25.1,10.4s-9.6,17.7-9.6,31.2,3.2,22.3,9.4,29.5,14.1,10.4,24.8,10.4,18.9-3.3,24.5-10S621,234,621,220.7s-3-24.1-8.8-31S598.7,179.9,588,179.9Z" transform="translate(-40.8 -113.6)"/><path class="cls-4" d="M587.2,281.4c-16.9,0-30.4-5.7-40.3-16.8s-14.8-25.6-14.8-43.2,5.2-34.1,15.5-44.9,24-16.4,40.8-16.4,29.8,5.5,39.4,16.4,14.4,25.7,14.4,44.5-4.9,32.4-14.7,43.5S604.2,281.4,587.2,281.4Zm.8-106.4c-12.2,0-21.6,4-28.8,12.1s-10.8,19.8-10.8,34.5,3.6,24.7,10.6,32.8,16.4,12.1,28.6,12.1,21.7-3.9,28.4-11.8S626,235.2,626,220.7s-3.4-26.4-10-34.2S600.2,174.9,588,174.9Z" transform="translate(-40.8 -113.6)"/><path class="cls-4" d="M587.2,284.4c-17.8,0-32.1-6-42.6-17.9s-15.5-26.8-15.5-45.2,5.5-35.6,16.3-47,25.4-17.3,43-17.3,31.4,5.8,41.6,17.4,15.2,27,15.2,46.5-5.2,33.8-15.4,45.5S605.1,284.4,587.2,284.4Zm.8-106.4c-11.3,0-20,3.6-26.6,11.1s-10.1,18.5-10.1,32.5,3.3,23.3,9.9,30.9,15,11.1,26.4,11.1,20-3.5,26.1-10.8,9.4-18.2,9.4-32-3.1-25-9.3-32.3S599.3,177.9,588,177.9Z" transform="translate(-40.8 -113.6)"/><path class="cls-4" d="M587.2,279.4c-16.3,0-29.3-5.4-38.8-16.2s-14.3-24.8-14.3-41.9,5-33.1,14.9-43.5S572.3,162,588.4,162s28.7,5.3,37.9,15.7,13.9,24.9,13.9,43.2-4.8,31.5-14.2,42.2S603.6,279.4,587.2,279.4Zm.8-106.4c-12.8,0-22.7,4.2-30.3,12.8s-11.3,20.6-11.3,35.8,3.7,25.6,11.1,34.1,17.3,12.8,30.1,12.8,22.9-4.1,29.9-12.6S628,235.7,628,220.7s-3.5-27.3-10.5-35.5S600.9,172.9,588,172.9Z" transform="translate(-40.8 -113.6)"/><path class="cls-4" d="M587.2,282.3c-17.1,0-30.9-5.8-41-17.2s-15-26-15-43.8,5.3-34.5,15.7-45.6,24.4-16.7,41.5-16.7,30.3,5.6,40.1,16.7,14.6,26.1,14.6,45.1-5,32.9-14.9,44.2S604.5,282.3,587.2,282.3Zm.8-106.4c-11.9,0-21.1,3.9-28.1,11.8s-10.6,19.4-10.6,33.9,3.5,24.2,10.3,32.2,16,11.8,27.9,11.8,21.2-3.8,27.7-11.5,9.9-19.1,9.9-33.3-3.3-26-9.8-33.6S600,175.9,588,175.9Z" transform="translate(-40.8 -113.6)"/><path class="cls-4" d="M587.2,277.3c-15.6,0-28.2-5.2-37.3-15.5s-13.7-23.9-13.7-40.5,4.8-32.1,14.4-42.1,22.2-15.1,37.8-15.1,27.5,5,36.4,15,13.4,24.1,13.4,41.8-4.6,30.5-13.6,40.9S603,277.3,587.2,277.3Zm.8-106.4c-13.4,0-23.9,4.4-31.9,13.5s-11.8,21.4-11.8,37.2,3.9,26.6,11.6,35.5,18.2,13.5,31.7,13.5,24-4.4,31.5-13.3,11-21.1,11-36.5-3.7-28.3-11-36.9S601.5,170.9,588,170.9Z" transform="translate(-40.8 -113.6)"/><path class="cls-4" d="M587.2,280.3c-16.5,0-29.8-5.5-39.5-16.5s-14.5-25.2-14.5-42.5,5.1-33.6,15.2-44.2,23.6-16.1,40-16.1,29.2,5.4,38.6,16,14.1,25.3,14.1,43.8-4.8,31.9-14.4,42.8S603.9,280.3,587.2,280.3Zm.8-106.4c-12.5,0-22.2,4.1-29.6,12.5s-11.1,20.2-11.1,35.2,3.6,25.2,10.8,33.5,16.8,12.5,29.4,12.5,22.3-4,29.2-12.2,10.3-19.9,10.3-34.6-3.4-26.9-10.3-34.9S600.6,173.9,588,173.9Z" transform="translate(-40.8 -113.6)"/><path class="cls-4" d="M587.2,275.3c-15,0-27.1-5-35.8-14.8s-13.2-23.1-13.2-39.2,4.6-31.1,13.8-40.7,21.4-14.5,36.4-14.5,26.4,4.8,34.9,14.3,12.9,23.2,12.9,40.5-4.4,29.6-13.1,39.5S602.4,275.3,587.2,275.3Zm.8-106.4c-14,0-25,4.6-33.4,14.2s-12.3,22.2-12.3,38.5,4.1,27.5,12,36.8,19.1,14.2,33.2,14.2,25.2-4.6,33-14,11.5-21.9,11.5-37.8-3.9-29.2-11.4-38.2S602.1,168.9,588,168.9Z" transform="translate(-40.8 -113.6)"/><path class="cls-4" d="M593.1,282.5c-17.2,0-31-5.8-41.2-17.2s-15-26.1-15-43.9,5.3-34.6,15.8-45.7,24.5-16.8,41.6-16.8,30.4,5.6,40.2,16.7,14.7,26.2,14.7,45.3-5,33-14.9,44.3S610.3,282.5,593.1,282.5Zm.8-106.4c-11.9,0-21,3.8-28,11.7s-10.5,19.3-10.5,33.8,3.5,24.1,10.3,32.1,15.9,11.7,27.8,11.7,21.1-3.7,27.5-11.4,9.8-19,9.8-33.2-3.3-25.9-9.7-33.5S605.7,176.1,593.8,176.1Z" transform="translate(-40.8 -113.6)"/><path class="cls-4" d="M593.1,277.5c-15.7,0-28.3-5.2-37.4-15.5s-13.8-24-13.8-40.6,4.9-32.2,14.4-42.3,22.3-15.2,38-15.2,27.6,5.1,36.5,15.1,13.4,24.1,13.4,42-4.6,30.6-13.7,41S608.8,277.5,593.1,277.5Zm.8-106.4c-13.4,0-23.8,4.4-31.7,13.4s-11.8,21.3-11.8,37.1,3.9,26.5,11.5,35.3,18.1,13.4,31.6,13.4,23.9-4.3,31.4-13.2,11-21,11-36.4S632,192.5,624.8,184,607.3,171.1,593.8,171.1Z" transform="translate(-40.8 -113.6)"/><path class="cls-4" d="M593.1,280.5c-16.6,0-29.9-5.6-39.7-16.6s-14.5-25.2-14.5-42.6,5.1-33.6,15.2-44.3,23.7-16.1,40.2-16.1,29.3,5.4,38.7,16.1,14.2,25.4,14.2,43.9-4.9,32-14.4,43S609.7,280.5,593.1,280.5Zm.8-106.4c-12.5,0-22.1,4.1-29.5,12.4s-11,20.1-11,35.1,3.6,25.1,10.8,33.4,16.8,12.4,29.3,12.4,22.2-4,29.1-12.2,10.3-19.8,10.3-34.5-3.4-26.8-10.2-34.8S606.3,174.1,593.8,174.1Z" transform="translate(-40.8 -113.6)"/><path class="cls-4" d="M593.1,275.5c-15.1,0-27.2-5-35.9-14.9s-13.3-23.2-13.3-39.3,4.7-31.2,13.9-40.9,21.5-14.6,36.5-14.6,26.5,4.8,35,14.4,12.9,23.3,12.9,40.6-4.4,29.7-13.2,39.7S608.2,275.5,593.1,275.5Zm.8-106.4c-14,0-24.9,4.6-33.2,14.1s-12.3,22.2-12.3,38.4,4,27.4,12,36.6,19,14.1,33.1,14.1,25.1-4.6,32.9-14,11.4-21.8,11.4-37.7-3.8-29.1-11.4-38S607.9,169.1,593.8,169.1Z" transform="translate(-40.8 -113.6)"/><path class="cls-4" d="M593.1,278.4q-24.1,0-38.1-15.9t-14-41.2q0-27.4,14.7-42.9T594.2,163q23.5,0,37.2,15.4t13.7,42.6q0,25.7-13.9,41.6T593.1,278.4Zm.8-106.4q-19.5,0-31,13.1t-11.6,36.4q0,21.6,11.3,34.7t30.9,13.1q19.9,0,30.6-12.9t10.8-35.8q0-23.5-10.7-36.1T593.8,172Z" transform="translate(-40.8 -113.6)"/><path class="cls-4" d="M553.8,252.7c-5.3-8.6-7.9-19.1-7.9-31.3,0-14.3,3.2-26,9.5-34.9-6.1,9.1-9.2,20.9-9.2,35.1C546.2,233.7,548.8,244.1,553.8,252.7Zm83-10.1a75.9,75.9,0,0,0,2.9-21.9c0-10.5-1.5-19.6-4.6-27.2,3.3,7.6,4.9,16.8,4.9,27.4A68,68,0,0,1,636.8,242.6Z" transform="translate(-40.8 -113.6)"/><path class="cls-4" d="M593.1,276.4c-15.4,0-27.7-5.1-36.6-15.2s-13.5-23.6-13.5-39.9,4.8-31.6,14.1-41.5S578.9,165,594.2,165s27,4.9,35.7,14.7,13.1,23.7,13.1,41.2-4.5,30.1-13.4,40.3S608.5,276.4,593.1,276.4Zm.8-106.4c-13.5,0-24.5,4.6-32.5,13.8s-12.1,21.8-12.1,37.8,4,27,11.8,36,18.8,13.8,32.4,13.8,24.6-4.6,32.2-13.6,11.2-21.4,11.2-37.1S633,192,625.6,183.3,607.4,170,593.8,170Z" transform="translate(-40.8 -113.6)"/><path class="cls-4" d="M593.1,276.4c-15.4,0-27.7-5.1-36.6-15.2s-13.5-23.6-13.5-39.9,4.8-31.6,14.1-41.5S578.9,165,594.2,165s27,4.9,35.7,14.7,13.1,23.7,13.1,41.2-4.5,30.1-13.4,40.3S608.5,276.4,593.1,276.4Zm.8-106.4c-13.5,0-24.5,4.6-32.5,13.8s-12.1,21.8-12.1,37.8,4,27,11.8,36,18.8,13.8,32.4,13.8,24.6-4.6,32.2-13.6,11.2-21.4,11.2-37.1S633,192,625.6,183.3,607.4,170,593.8,170Z" transform="translate(-40.8 -113.6)"/><path class="cls-1" d="M733.5,283.7v-72c0-31.7-14-31.7-20.7-31.7-8.4,0-14.8,2.8-20.2,9s-8.2,14.1-8.2,23.6v71.2H658.7v-126h25.8v6.7c8.3-6.2,18.3-9.4,30.1-9.4,14.4,0,25.7,5,33.5,14.9s11.2,22.4,11.2,38.9v74.9Z" transform="translate(-40.8 -113.6)"/><path class="cls-1" d="M738.5,278.7v-67c0-32.9-14.6-36.7-25.7-36.7s-17.6,3.5-23.9,10.7-9.5,16.1-9.5,26.9v66.2H663.7v-116h15.8v11.7l8-6c7.4-5.6,16.5-8.4,27.1-8.4,12.8,0,22.7,4.4,29.6,13s10.1,20.4,10.1,35.8v69.9Z" transform="translate(-40.8 -113.6)"/><path class="cls-1" d="M735.5,281.7v-70c0-33.7-15.9-33.7-22.7-33.7-9,0-15.9,3.1-21.7,9.6s-8.7,14.9-8.7,25v69.2H660.7v-122h21.8v8.7l3.2-2.4c7.9-6,17.6-9,28.9-9,13.7,0,24.5,4.8,32,14.1s10.8,21.6,10.8,37.6v72.9Z" transform="translate(-40.8 -113.6)"/><path class="cls-1" d="M740.5,276.7v-65c0-38.7-20.8-38.7-27.7-38.7-10.4,0-18.7,3.7-25.4,11.3s-10,16.9-10,28.2v64.2H665.7v-112h11.8v13.7l11.2-8.5c7-5.3,15.7-8,25.9-8,12.1,0,21.6,4.1,28,12.2s9.7,19.7,9.7,34.5v67.9Z" transform="translate(-40.8 -113.6)"/><path class="cls-1" d="M737.5,279.6V211.7c0-32.1-14.1-35.8-24.7-35.8s-17.1,3.4-23.2,10.3-9.3,15.7-9.3,26.3v67.1H662.7V161.8h17.6v12c8.5-9.7,19.9-14.6,34.2-14.6s23.3,4.5,30.3,13.3,10.3,20.8,10.3,36.3v70.9Z" transform="translate(-40.8 -113.6)"/><path class="cls-1" d="M742.5,274.6V211.7c0-27.1-10-40.8-29.7-40.8-10.9,0-20,4.1-27,12s-10.5,17.7-10.5,29.6v62.1h-7.6V166.8h7.6v20.3l8.8-10c7.6-8.7,17.5-12.9,30.4-12.9s20.4,3.9,26.4,11.5,9.2,18.9,9.2,33.2v65.9Z" transform="translate(-40.8 -113.6)"/><path class="cls-1" d="M739.5,277.6V211.7c0-25.4-8.7-37.8-26.7-37.8-10.1,0-18.2,3.6-24.7,11s-9.7,16.5-9.7,27.6v65.1H664.7V163.8h13.6v15.3l3.5-4c8.1-9.3,19.1-14,32.7-14s22.1,4.2,28.8,12.6,9.9,20,9.9,35.1v68.9Z" transform="translate(-40.8 -113.6)"/><path class="cls-1" d="M744.5,272.6V211.7c0-28.4-10.7-42.8-31.7-42.8-11.5,0-21.1,4.3-28.5,12.7s-11,18.6-11,30.9v60.1h-3.6V168.8h3.6v23.6l12.3-14.1c7.1-8.1,16.8-12.3,28.9-12.3s19.2,3.6,24.9,10.7,8.8,18.1,8.8,32v63.9Z" transform="translate(-40.8 -113.6)"/><path class="cls-1" d="M737.4,279.8V211.7c0-31.9-14-35.6-24.5-35.6s-17,3.4-23.1,10.3-9.2,15.6-9.2,26.2v67.3h-18V161.6h18v11.6c8.5-9.5,19.9-14.3,34-14.3s23.4,4.5,30.5,13.4,10.3,20.9,10.3,36.5v71Z" transform="translate(-40.8 -113.6)"/><path class="cls-1" d="M742.4,274.8V211.7c0-26.9-9.9-40.6-29.5-40.6-10.8,0-19.9,4-26.8,12s-10.4,17.7-10.4,29.5v62.3h-8V166.6h8v19.8l8.7-9.8c7.6-8.5,17.5-12.7,30.3-12.7s20.5,3.9,26.6,11.5,9.3,18.9,9.3,33.3v66Z" transform="translate(-40.8 -113.6)"/><path class="cls-1" d="M739.4,277.8V211.7c0-25.3-8.7-37.6-26.5-37.6-10.1,0-18.1,3.6-24.6,11s-9.7,16.5-9.7,27.5v65.3h-14V163.6h14v14.9l3.5-3.9c8.1-9.1,19-13.7,32.5-13.7s22.2,4.3,28.9,12.7,9.9,20.1,9.9,35.2v69Z" transform="translate(-40.8 -113.6)"/><path class="cls-1" d="M744.4,272.8V211.7c0-28.3-10.6-42.6-31.5-42.6-11.4,0-21,4.3-28.3,12.7s-10.9,18.5-10.9,30.8v60.3h-4V168.6h4v23l12.2-13.7c7.1-8,16.8-12,28.8-12s19.3,3.6,25,10.8,8.8,18.1,8.8,32.1v64Z" transform="translate(-40.8 -113.6)"/><path class="cls-1" d="M741.4,275.7V211.7q0-39.7-28.6-39.7-15.9,0-26.1,11.7t-10.2,28.9v63.2h-9.9V165.7h9.9v20h.4q12-22.7,37.6-22.7,17.8,0,27.3,11.9t9.5,33.9v67Z" transform="translate(-40.8 -113.6)"/><path class="cls-1" d="M671.6,190.6h4.6a48.9,48.9,0,0,0-4.6,18.2Zm74.7,15.5c-1-19-7.5-29.2-15.5-34.4a25,25,0,0,1,7.2,6.2C743.1,184.5,745.9,193.9,746.3,206.1Z" transform="translate(-40.8 -113.6)"/><path class="cls-1" d="M743.4,273.7V211.7c0-27.7-10.3-41.7-30.6-41.7-11.2,0-20.5,4.2-27.6,12.3s-10.7,18.3-10.7,30.2v61.2h-5.9V167.7h5.9v20h3.6l.6-1.1c7.7-14.5,19.5-21.6,35.9-21.6,11.4,0,19.8,3.6,25.7,11.1s9,18.5,9,32.7v65Z" transform="translate(-40.8 -113.6)"/><path class="cls-1" d="M743.4,273.7V211.7c0-27.7-10.3-41.7-30.6-41.7-11.2,0-20.5,4.2-27.6,12.3s-10.7,18.3-10.7,30.2v61.2h-5.9V167.7h5.9v20h3.6l.6-1.1c7.7-14.5,19.5-21.6,35.9-21.6,11.4,0,19.8,3.6,25.7,11.1s9,18.5,9,32.7v65Z" transform="translate(-40.8 -113.6)"/></svg>