<?xml version="1.0" encoding="utf-8"?>
<!-- Generator: Adobe Illustrator 21.1.0, SVG Export Plug-In . SVG Version: 6.00 Build 0)  -->
<svg version="1.1" id="Layer_1" xmlns="http://www.w3.org/2000/svg" xmlns:xlink="http://www.w3.org/1999/xlink" x="0px" y="0px"
	 viewBox="0 0 245.8 61.4" style="enable-background:new 0 0 245.8 61.4;" xml:space="preserve">
<style type="text/css">
	.st0{fill-rule:evenodd;clip-rule:evenodd;fill:#FF5C00;}
	.st1{fill:none;}
	.st2{fill-rule:evenodd;clip-rule:evenodd;fill:#FFFFFF;}
</style>
<path class="st0" d="M210.1,42.6V18.8h6.3l9,12.2c0.2,0.3,0.5,0.8,0.8,1.5c0.4,0.7,0.8,1.6,1.3,2.7c-0.1-1-0.2-1.9-0.3-2.6
	c-0.1-0.8-0.1-1.5-0.1-2V18.8h6.2v23.8h-6.2l-9-12.3c-0.2-0.2-0.5-0.8-0.9-1.5c-0.4-0.8-0.8-1.6-1.3-2.7c0.1,1,0.2,1.9,0.3,2.7
	c0.1,0.8,0.1,1.5,0.1,2v11.8H210.1L210.1,42.6z M177.6,42.6h-21l12-18.7h-9.6v-5.2h20l-12,18.6h10.6V42.6L177.6,42.6z M67.8,42.6
	V18.8h6.5V28H83v-9.3h6.5v23.8H83v-9.7h-8.7v9.7H67.8L67.8,42.6z M106.3,37.7c1.8,0,3.3-0.7,4.5-2c1.2-1.3,1.8-3,1.8-5
	c0-2-0.6-3.7-1.8-5c-1.2-1.3-2.7-2-4.4-2c-1.8,0-3.3,0.7-4.5,2c-1.2,1.3-1.8,3-1.8,5c0,2,0.6,3.7,1.7,5
	C102.9,37.1,104.4,37.7,106.3,37.7L106.3,37.7z M119,30.7c0,1.7-0.3,3.3-0.9,4.8c-0.6,1.5-1.5,2.8-2.7,4c-1.2,1.2-2.6,2.1-4.2,2.7
	c-1.6,0.6-3.2,0.9-4.9,0.9c-1.7,0-3.3-0.3-4.9-0.9c-1.6-0.6-2.9-1.5-4.1-2.7c-1.2-1.2-2.2-2.5-2.8-4c-0.6-1.5-0.9-3.1-0.9-4.8
	c0-1.7,0.3-3.3,0.9-4.8c0.6-1.5,1.6-2.8,2.8-4c1.2-1.2,2.5-2.1,4.1-2.7c1.6-0.6,3.2-0.9,4.9-0.9c1.7,0,3.3,0.3,4.9,0.9
	c1.6,0.6,2.9,1.5,4.1,2.7c1.2,1.2,2.1,2.5,2.7,4C118.7,27.4,119,29,119,30.7L119,30.7z M129.1,30h1.2c1.4,0,2.4-0.2,3.1-0.7
	c0.6-0.5,1-1.2,1-2.2c0-1.2-0.3-2-0.9-2.5c-0.6-0.5-1.6-0.8-3-0.8h-1.3V30L129.1,30z M123,42.6V18.8h6.8c2.7,0,4.5,0.1,5.6,0.4
	c1,0.2,1.9,0.7,2.7,1.2c0.9,0.6,1.5,1.5,2,2.5c0.5,1,0.7,2.1,0.7,3.3c0,1.8-0.5,3.3-1.4,4.5c-0.9,1.2-2.2,1.9-4,2.3l6.5,9.6h-7.3
	l-5.5-9.3v9.3H123L123,42.6z M145.8,42.6V18.8h6.6v23.8H145.8L145.8,42.6z M206,30.7c0,1.7-0.3,3.3-0.9,4.8c-0.6,1.5-1.5,2.8-2.7,4
	c-1.2,1.2-2.6,2.1-4.2,2.7c-1.6,0.6-3.2,0.9-4.9,0.9c-1.7,0-3.3-0.3-4.9-0.9c-1.6-0.6-2.9-1.5-4.1-2.7c-1.2-1.2-2.2-2.5-2.8-4
	c-0.6-1.5-0.9-3.1-0.9-4.8c0-1.7,0.3-3.3,0.9-4.8c0.6-1.5,1.6-2.8,2.8-4c1.2-1.2,2.5-2.1,4.1-2.7c1.6-0.6,3.2-0.9,4.9-0.9
	c1.7,0,3.3,0.3,4.9,0.9c1.6,0.6,2.9,1.5,4.1,2.7c1.2,1.2,2.1,2.5,2.7,4C205.7,27.4,206,29,206,30.7L206,30.7z M193.3,37.7
	c1.8,0,3.3-0.7,4.5-2c1.2-1.3,1.8-3,1.8-5c0-2-0.6-3.7-1.8-5c-1.2-1.3-2.7-2-4.4-2c-1.8,0-3.3,0.7-4.5,2c-1.2,1.3-1.8,3-1.8,5
	c0,2,0.6,3.7,1.7,5C189.9,37.1,191.4,37.7,193.3,37.7L193.3,37.7z"/>
<path class="st0" d="M-17.5,13.6"/>
<path class="st0" d="M77,59.4"/>
<path class="st1" d="M118.3,43.7c25,0,45.2,8.2,58,27.8"/>
<path class="st2" d="M17.3,26c-0.4,1.3-0.6,2.8-0.6,4.2"/>
<g>
	<path class="st0" d="M17.3,26c2.1-7.6,9.1-13.2,17.4-13.2c9.9,0,18,8.1,18,18c0,3.4-1,6.6-2.7,9.4L50,40c1.7,1.5,3.4,3.2,5.2,5.1
		c2.8-4.1,4.5-9,4.5-14.3c0-13.9-11.2-25.1-25.1-25.1c-12.2,0-22.3,8.7-24.6,20.1C11.9,25.7,14.3,25.7,17.3,26z"/>
	<path class="st0" d="M46.4,44.3L46.4,44.3c-3.1,2.7-7.2,4.4-11.8,4.4c-9.9,0-18-8.1-18-18c0-0.2,0-0.4,0-0.6
		c-2.3-0.3-4.6-0.4-7.1-0.4c0,0.3,0,0.6,0,1c0,13.9,11.2,25.1,25.1,25.1c6.5,0,12.4-2.5,16.9-6.5C49.8,47.6,48.1,45.9,46.4,44.3z"/>
</g>
</svg>
