<?xml version="1.0" encoding="utf-8"?>
<!-- Generator: Adobe Illustrator 21.1.0, SVG Export Plug-In . SVG Version: 6.00 Build 0)  -->
<svg version="1.1" id="Layer_1" xmlns="http://www.w3.org/2000/svg" xmlns:xlink="http://www.w3.org/1999/xlink" x="0px" y="0px"
	 viewBox="0 0 245.8 61.4" style="enable-background:new 0 0 245.8 61.4;" xml:space="preserve">
<style type="text/css">
	.st0{fill-rule:evenodd;clip-rule:evenodd;fill:#FF5C00;}
</style>
<path class="st0" d="M219.1,44.4V17.1h7.2l10.3,14c0.2,0.3,0.5,0.9,1,1.7c0.5,0.9,1,1.9,1.5,3.1c-0.1-1.1-0.3-2.1-0.3-3
	c-0.1-0.9-0.1-1.7-0.1-2.3V17.1h7.1v27.3h-7.1l-10.3-14.1c-0.2-0.3-0.5-0.9-1-1.7c-0.5-0.9-0.9-1.9-1.5-3.1c0.1,1.1,0.3,2.2,0.3,3
	c0.1,0.9,0.1,1.7,0.1,2.3v13.5H219.1L219.1,44.4z M181.8,44.4h-24.1l13.8-21.4h-11.1v-5.9h23l-13.7,21.3h12.2V44.4L181.8,44.4z
	 M56,44.4V17.1h7.4v10.6h9.9V17.1h7.4v27.3h-7.4V33.3h-9.9v11.1H56L56,44.4z M100.1,38.9c2.1,0,3.8-0.8,5.1-2.3c1.3-1.5,2-3.4,2-5.7
	c0-2.3-0.7-4.2-2-5.7c-1.4-1.5-3.1-2.3-5.1-2.3c-2.1,0-3.8,0.8-5.1,2.3c-1.3,1.5-2,3.4-2,5.7c0,2.3,0.7,4.3,2,5.8
	C96.2,38.1,98,38.9,100.1,38.9L100.1,38.9z M114.6,30.8c0,2-0.4,3.8-1.1,5.5c-0.7,1.7-1.8,3.3-3.1,4.6c-1.4,1.3-3,2.4-4.8,3.1
	c-1.8,0.7-3.6,1.1-5.6,1.1c-2,0-3.8-0.4-5.6-1.1c-1.8-0.7-3.3-1.8-4.7-3.1c-1.4-1.4-2.5-2.9-3.2-4.6c-0.7-1.7-1.1-3.6-1.1-5.5
	c0-2,0.4-3.8,1.1-5.5c0.7-1.7,1.8-3.3,3.2-4.6c1.4-1.3,2.9-2.4,4.7-3.1c1.8-0.7,3.7-1.1,5.6-1.1c1.9,0,3.8,0.4,5.6,1.1
	c1.8,0.7,3.4,1.8,4.7,3.1c1.4,1.3,2.4,2.9,3.1,4.6C114.3,27.1,114.6,28.9,114.6,30.8L114.6,30.8z M126.3,30h1.4
	c1.6,0,2.8-0.3,3.5-0.8c0.7-0.5,1.1-1.4,1.1-2.6c0-1.4-0.3-2.3-1-2.9c-0.7-0.6-1.8-0.9-3.5-0.9h-1.5V30L126.3,30z M119.3,44.4V17.1
	h7.8c3,0,5.2,0.1,6.4,0.4c1.2,0.3,2.2,0.8,3.1,1.4c1,0.7,1.7,1.7,2.3,2.9c0.5,1.2,0.8,2.4,0.8,3.8c0,2.1-0.5,3.8-1.6,5.2
	c-1,1.3-2.6,2.2-4.5,2.6l7.4,11h-8.4l-6.3-10.7v10.7H119.3L119.3,44.4z M145.5,44.4V17.1h7.5v27.3H145.5L145.5,44.4z M214.4,30.8
	c0,2-0.4,3.8-1.1,5.5c-0.7,1.7-1.8,3.3-3.1,4.6c-1.4,1.3-3,2.4-4.8,3.1c-1.8,0.7-3.6,1.1-5.6,1.1c-2,0-3.8-0.4-5.6-1.1
	c-1.8-0.7-3.3-1.8-4.7-3.1c-1.4-1.4-2.5-2.9-3.2-4.6c-0.7-1.7-1.1-3.6-1.1-5.5c0-2,0.4-3.8,1.1-5.5c0.7-1.7,1.8-3.3,3.2-4.6
	c1.4-1.3,2.9-2.4,4.7-3.1c1.8-0.7,3.7-1.1,5.6-1.1c1.9,0,3.8,0.4,5.6,1.1c1.8,0.7,3.4,1.8,4.7,3.1c1.4,1.3,2.4,2.9,3.1,4.6
	C214.1,27.1,214.4,28.9,214.4,30.8L214.4,30.8z M199.8,38.9c2.1,0,3.8-0.8,5.1-2.3c1.3-1.5,2-3.4,2-5.7c0-2.3-0.7-4.2-2-5.7
	c-1.4-1.5-3.1-2.3-5.1-2.3c-2.1,0-3.8,0.8-5.1,2.3c-1.3,1.5-2,3.4-2,5.7c0,2.3,0.7,4.3,2,5.8C196,38.1,197.7,38.9,199.8,38.9
	L199.8,38.9z"/>
<path class="st0" d="M-19.8,13.6"/>
<path class="st0" d="M84.4,58.2"/>
<g>
	<path class="st0" d="M7.2,26.4c1.9-7.1,8.4-12.3,16.1-12.3c9.2,0,16.7,7.5,16.7,16.7c0,3.2-0.9,6.2-2.5,8.7l0.1-0.1
		c1.6,1.4,3.2,3,4.8,4.7c2.6-3.8,4.2-8.4,4.2-13.3c0-12.9-10.5-23.4-23.4-23.4c-11.3,0-20.7,8-22.9,18.7C2.2,26.2,4.5,26.2,7.2,26.4
		z"/>
	<path class="st0" d="M34.3,43.5L34.3,43.5c-2.9,2.5-6.7,4.1-11,4.1c-9.2,0-16.7-7.5-16.7-16.7c0-0.2,0-0.3,0-0.5
		C4.5,30.1,2.3,30,0,29.9c0,0.3,0,0.6,0,0.9c0,12.9,10.5,23.4,23.4,23.4c6,0,11.5-2.3,15.7-6C37.5,46.5,35.9,45,34.3,43.5z"/>
</g>
</svg>
