<?xml version="1.0" encoding="UTF-8"?>
<!DOCTYPE svg PUBLIC "-//W3C//DTD SVG 1.1//EN" "http://www.w3.org/Graphics/SVG/1.1/DTD/svg11.dtd">
<!-- Creator: CorelDRAW X7 -->
<svg xmlns="http://www.w3.org/2000/svg" xml:space="preserve" width="718px" height="180px" version="1.1" style="shape-rendering:geometricPrecision; text-rendering:geometricPrecision; image-rendering:optimizeQuality; fill-rule:evenodd; clip-rule:evenodd"
viewBox="0 0 71800 18000"
 xmlns:xlink="http://www.w3.org/1999/xlink">
 <defs>
  <style type="text/css">
   <![CDATA[
    .fil0 {fill:#FF8000}
   ]]>
  </style>
 </defs>
 <g id="Layer_x0020_1">
  <metadata id="CorelCorpID_0Corel-Layer"/>
  <path class="fil0" d="M8986 25c-4957,0 -8975,4018 -8975,8975 0,4353 3100,7982 7212,8802l0 -2358c-2834,-773 -4917,-3365 -4917,-6444 0,-3689 2991,-6680 6680,-6680 3690,0 6680,2991 6680,6680 0,3079 -2083,5671 -4916,6444l0 2358c4112,-820 7212,-4449 7212,-8802 0,-4957 -4019,-8975 -8976,-8975zm51099 11018c526,0 961,-193 1305,-579 343,-387 515,-875 515,-1464 0,-582 -173,-1069 -522,-1459 -349,-390 -782,-584 -1298,-584 -525,0 -959,194 -1303,582 -344,388 -516,876 -516,1461 0,595 169,1085 508,1468 339,384 777,575 1311,575zm3717 -2043c0,501 -92,970 -275,1406 -183,438 -451,829 -803,1174 -355,342 -761,605 -1216,791 -456,185 -929,278 -1419,278 -498,0 -975,-93 -1429,-278 -454,-186 -853,-449 -1198,-791 -358,-345 -629,-738 -816,-1179 -185,-439 -277,-906 -277,-1401 0,-498 92,-965 277,-1404 187,-438 458,-831 816,-1176 345,-342 744,-605 1198,-791 454,-185 931,-278 1429,-278 493,0 970,93 1427,278 457,186 859,449 1208,791 349,342 615,733 801,1174 185,440 277,908 277,1406zm-17572 3464l0 -6957 1917 0 0 6957 -1917 0zm-6663 0l0 -6957 1984 0c776,0 1317,36 1622,107 305,71 569,192 791,358 250,190 443,433 578,727 134,295 201,619 201,975 0,538 -133,976 -398,1313 -266,337 -651,561 -1159,671l1897 2806 -2140 0 -1596 -2724 0 2724 -1780 0zm1780 -3668l350 0c409,0 707,-70 896,-209 188,-140 281,-359 281,-656 0,-348 -87,-596 -262,-744 -177,-148 -470,-220 -885,-220l-380 0 0 1829zm-2968 204c0,501 -92,970 -275,1406 -183,438 -451,829 -803,1174 -355,342 -760,605 -1216,791 -456,185 -929,278 -1419,278 -498,0 -975,-93 -1429,-278 -454,-186 -853,-449 -1198,-791 -358,-345 -629,-738 -816,-1179 -185,-439 -277,-906 -277,-1401 0,-498 92,-965 277,-1404 187,-438 458,-831 816,-1176 345,-342 744,-605 1198,-791 454,-185 931,-278 1429,-278 493,0 970,93 1427,278 457,186 859,449 1208,791 349,342 615,733 801,1174 185,440 277,908 277,1406zm-3716 2043c525,0 960,-193 1303,-579 344,-387 516,-875 516,-1464 0,-582 -173,-1069 -522,-1459 -349,-390 -781,-584 -1297,-584 -526,0 -960,194 -1304,582 -344,388 -516,876 -516,1461 0,595 169,1085 508,1468 339,384 777,575 1312,575zm-11227 1421l0 -6957 1898 0 0 2705 2529 0 0 -2705 1898 0 0 6957 -1898 0 0 -2831 -2529 0 0 2831 -1898 0zm32067 0l-6149 0 3511 -5449 -2817 0 0 -1508 5854 0 -3502 5439 3103 0 0 1518zm9485 0l0 -6957 1829 0 2630 3577c50,73 133,221 248,441 117,219 243,482 383,787 -37,-289 -65,-545 -83,-770 -18,-226 -26,-425 -26,-599l0 -3436 1820 0 0 6957 -1820 0 -2628 -3592c-56,-73 -140,-221 -255,-439 -117,-221 -242,-480 -378,-779 37,292 65,550 83,775 18,226 26,425 26,599l0 3436 -1829 0zm-56002 -5778c1009,0 1868,647 2184,1548l2120 0c-256,-1452 -1229,-2656 -2540,-3235l0 -1547c2352,747 4057,2949 4057,5548 0,2600 -1705,4801 -4057,5548l0 -1547c1311,-579 2283,-1783 2540,-3234l-2120 0c-316,901 -1175,1547 -2184,1547 -1009,0 -1867,-646 -2183,-1547l-2121 0c257,1451 1230,2655 2541,3234l0 1547c-2352,-747 -4057,-2948 -4057,-5548 0,-2599 1705,-4801 4057,-5548l0 1547c-1311,579 -2284,1783 -2541,3235l2121 0c316,-902 1175,-1548 2183,-1548zm0 1238c595,0 1076,482 1076,1076 0,594 -481,1076 -1076,1076 -594,0 -1076,-482 -1076,-1076 0,-594 482,-1076 1076,-1076zm1415 5202l0 4738c-461,73 -933,111 -1415,111 -481,0 -954,-38 -1415,-111l0 -4738c444,152 920,235 1415,235 496,0 972,-83 1415,-235z"/>
 </g>
</svg>
